<svg viewBox="0 0 1024 1024" version="1.1" xmlns="http://www.w3.org/2000/svg">
  <path d="M902.838125 511.086875c0 216.1190625-175.83 391.9471875-391.9471875 391.9471875s-391.9453125-175.828125-391.9453125-391.9471875c0-216.1171875 175.83-391.9471875 391.9453125-391.9471875s391.9471875 175.83 391.9471875 391.9471875zM829.3484375 511.086875c0-175.591875-142.8525-318.45375-318.4565625-318.45375s-318.455625 142.861875-318.455625 318.45375c0 175.59375 142.8525 318.4575 318.4565625 318.4575s318.455625-142.8646875 318.455625-318.4584375zM559.8865625 364.109375l0 146.9765625c0 27.05625-21.9365625 48.99375-48.99375 48.99375-27.05625 0-48.99375-21.9365625-48.99375-48.99375l0-146.9765625c0-27.05625 21.9365625-48.99375 48.99375-48.99375 27.05625 0 48.99375 21.9365625 48.99375 48.99375zM559.8865625 658.06625c0 27.0590625-21.9365625 48.9965625-48.99375 48.9965625-27.05625 0-48.99375-21.9365625-48.99375-48.9965625 0-27.054375 21.9365625-48.9909375 48.99375-48.9909375 27.05625 0 48.99375 21.9365625 48.99375 48.9909375z" fill="#ffffff"></path>
</svg>