<svg viewBox="0 0 1024 1024" version="1.1" xmlns="http://www.w3.org/2000/svg">
  <path d="M512 898.71874973C298.42578125 898.71874973 125.28125027 725.57421875 125.28125027 512S298.42578125 125.28125027 512 125.28125027s386.71874973 173.14453098 386.71874973 386.71874973-173.14453098 386.71874973-386.71874973 386.71874973z m0-70.31249973c174.7441409 0 316.40625-141.6621091 316.40625-316.40625S686.7441409 195.59375 512 195.59375 195.59375 337.2558591 195.59375 512s141.6621091 316.40625 316.40625 316.40625z m0-366.11718777l115.76953098-115.76953098a35.15625027 35.15625027 0 0 1 49.71093777 49.71093777L561.71093777 512l115.76953098 115.76953098a35.15625027 35.15625027 0 0 1-49.71093777 49.71093777L512 561.71093777l-115.76953098 115.76953098a35.15625027 35.15625027 0 0 1-49.71093777-49.71093777L462.28906223 512l-115.76953098-115.76953098a35.15625027 35.15625027 0 0 1 49.71093777-49.71093777L512 462.28906223z" fill="#ffffff"></path>
</svg>