<svg viewBox="0 0 1024 1024" version="1.1" xmlns="http://www.w3.org/2000/svg">
  <path d="M722.112 360.544c15.456 15.456 15.456 39.744 0 55.232L474.784 663.712a39.687 39.687 0 0 1-55.232 0l-1.92-2.24-115.68-116.224c-15.456-14.88-15.456-39.488-0.544-54.656s39.744-15.2 54.656 0l91.104 90.816 219.776-220.832c15.456-15.168 40-15.168 55.2 0zM906.72 512c0 218.016-176.736 394.72-394.72 394.72S117.28 730.016 117.28 512 294.016 117.28 512 117.28c218.016 0 394.752 176.736 394.752 394.72z m-73.088 0c0-177.632-144-321.632-321.664-321.632s-321.6 144-321.6 321.632 143.968 321.632 321.6 321.632 321.664-144 321.664-321.632z" fill="#ffffff"></path>
</svg>